<?xml version="1.0" encoding="iso-8859-1"?>
<!-- Uploaded to: SVG Repo, www.svgrepo.com, Generator: SVG Repo Mixer Tools -->
<!DOCTYPE svg PUBLIC "-//W3C//DTD SVG 1.1//EN" "http://www.w3.org/Graphics/SVG/1.1/DTD/svg11.dtd">
<svg fill="#000000" version="1.1" id="Capa_1" xmlns="http://www.w3.org/2000/svg" xmlns:xlink="http://www.w3.org/1999/xlink" 
	 width="800px" height="800px" viewBox="0 0 485.535 485.535"
	 xml:space="preserve">
<g>
	<g id="_x35__13_">
		<g>
			<path d="M55.465,123.228c-15.547,0-28.159,12.608-28.159,28.161v56.673C11.653,211.908,0,225.928,0,242.765
				c0,16.842,11.652,30.861,27.306,34.707v56.666c0,15.555,12.612,28.16,28.159,28.16c15.546,0,28.16-12.605,28.16-28.16V151.389
				C83.625,135.837,71.011,123.228,55.465,123.228z"/>
			<path d="M334.498,65.278c-23.092,0-41.811,18.719-41.811,41.812v93.864h-12.801h-60.585h-19.625l-6.827-0.163V107.09
				c0-23.092-18.72-41.812-41.813-41.812c-23.091,0-41.812,18.719-41.812,41.812v271.355c0,23.093,18.721,41.812,41.812,41.812
				c23.094,0,41.813-18.719,41.813-41.812v-93.653c0,0,4.501-0.211,6.827-0.211h19.625h60.585h12.801v93.864
				c0,23.093,18.719,41.812,41.811,41.812c23.094,0,41.812-18.719,41.812-41.812V107.089
				C376.311,83.998,357.592,65.278,334.498,65.278z"/>
			<path d="M458.229,208.062v-56.673c0-15.552-12.613-28.161-28.158-28.161c-15.547,0-28.16,12.608-28.16,28.161v182.749
				c0,15.555,12.613,28.16,28.16,28.16c15.545,0,28.158-12.605,28.158-28.16v-56.666c15.654-3.846,27.307-17.865,27.307-34.707
				C485.535,225.927,473.883,211.908,458.229,208.062z"/>
		</g>
	</g>
</g>
</svg>